# xmcd CD database file
# Copyright (C) 1993-1998 Ti Kan
#
# Track frame offsets:
#	150
#	31265
#	51025
#	79870
#	113037
#	137940
#	166252
#	193582
#	224095
#	240107
#	272170
#
# Disc length: 3832 seconds
#
# Revision: 2
# Processed by: cddbd v1.4b41PL1 Copyright (c) Steve Scherf et al.
# Submitted via: xmcd 2.2 PL0
#
DISCID=960ef60b
DTITLE=Greg Piccolo and Heavy Juice - Red Lights
DYEAR=1900
DGENRE=
TTITLE0=Old Maid Boogie
TTITLE1=Rockin' Chair
TTITLE2=My Baby's Gone (Alicia's Song)
TTITLE3=Acid Blue
TTITLE4=Red Lights
TTITLE5=Everytime I Turn Around
TTITLE6=Tired Of Waitin' For A Change
TTITLE7=Blue Pepper (Far East Of The Blues)
TTITLE8=What Would I Do Without You
TTITLE9=Money
TTITLE10=Moondog Boogie
EXTD=
EXTT0=
EXTT1=
EXTT2=
EXTT3=
EXTT4=
EXTT5=
EXTT6=
EXTT7=
EXTT8=
EXTT9=
EXTT10=
PLAYORDER=
